<svg width="171.699" height="15.196" viewBox="0 0 171.699 15.196" xmlns="http://www.w3.org/2000/svg"><g id="svgGroup" stroke-linecap="round" fill-rule="evenodd" font-size="9pt" stroke="#000" stroke-width="0.25mm" fill="none" style="stroke:#000;stroke-width:0.25mm;fill:none"><path d="M 22.393 0 L 22.393 6.895 A 4.674 4.674 0 0 1 23.192 5.601 A 4.207 4.207 0 0 1 23.916 4.951 A 3.764 3.764 0 0 1 26.143 4.238 Q 27.842 4.238 28.667 5.2 Q 29.492 6.162 29.502 8.105 L 29.502 15 L 28.975 15 L 28.975 8.086 Q 28.965 6.408 28.298 5.592 A 2.097 2.097 0 0 0 28.281 5.571 A 2.114 2.114 0 0 0 27.312 4.929 Q 26.958 4.81 26.524 4.773 A 4.811 4.811 0 0 0 26.113 4.756 A 3.286 3.286 0 0 0 23.745 5.728 A 4.717 4.717 0 0 0 22.585 7.567 A 6.006 6.006 0 0 0 22.393 8.232 L 22.393 15 L 21.865 15 L 21.865 0 L 22.393 0 Z M 164.59 0 L 164.59 6.895 A 4.674 4.674 0 0 1 165.389 5.601 A 4.207 4.207 0 0 1 166.113 4.951 A 3.764 3.764 0 0 1 168.34 4.238 Q 170.039 4.238 170.864 5.2 Q 171.689 6.162 171.699 8.105 L 171.699 15 L 171.172 15 L 171.172 8.086 Q 171.162 6.408 170.496 5.592 A 2.097 2.097 0 0 0 170.479 5.571 A 2.114 2.114 0 0 0 169.509 4.929 Q 169.155 4.81 168.722 4.773 A 4.811 4.811 0 0 0 168.311 4.756 A 3.286 3.286 0 0 0 165.942 5.728 A 4.717 4.717 0 0 0 164.782 7.567 A 6.006 6.006 0 0 0 164.59 8.232 L 164.59 15 L 164.063 15 L 164.063 0 L 164.59 0 Z M 123.857 7.256 L 123.32 7.256 Q 123.32 6.191 122.422 5.479 Q 121.549 4.786 120.161 4.766 A 5.767 5.767 0 0 0 120.078 4.766 A 5.142 5.142 0 0 0 119.195 4.837 Q 118.414 4.973 117.881 5.371 A 2.243 2.243 0 0 0 117.403 5.845 A 1.723 1.723 0 0 0 117.07 6.885 Q 117.07 7.388 117.221 7.738 A 1.302 1.302 0 0 0 117.373 8.003 Q 117.676 8.408 118.359 8.735 A 5.454 5.454 0 0 0 118.848 8.937 Q 119.367 9.126 120.104 9.306 A 20.517 20.517 0 0 0 120.352 9.365 Q 121.66 9.668 122.422 10.078 A 3.722 3.722 0 0 1 122.934 10.407 Q 123.206 10.617 123.392 10.857 A 2.059 2.059 0 0 1 123.525 11.05 A 2.276 2.276 0 0 1 123.809 11.793 A 3.203 3.203 0 0 1 123.867 12.422 A 2.448 2.448 0 0 1 123.611 13.55 Q 123.354 14.053 122.842 14.434 Q 121.816 15.195 120.156 15.195 A 6.395 6.395 0 0 1 118.968 15.091 Q 118.271 14.959 117.717 14.66 A 3.556 3.556 0 0 1 117.29 14.39 A 2.869 2.869 0 0 1 116.608 13.693 A 2.406 2.406 0 0 1 116.201 12.314 L 116.729 12.314 Q 116.807 13.428 117.71 14.048 A 3.22 3.22 0 0 0 118.66 14.483 Q 119.088 14.604 119.599 14.646 A 6.831 6.831 0 0 0 120.156 14.668 Q 121.377 14.668 122.203 14.178 A 2.903 2.903 0 0 0 122.456 14.009 A 2.565 2.565 0 0 0 122.95 13.534 A 1.779 1.779 0 0 0 123.34 12.412 Q 123.34 10.581 120.368 9.865 A 11.207 11.207 0 0 0 120.059 9.795 A 13.348 13.348 0 0 1 119.095 9.555 Q 118.168 9.284 117.618 8.937 A 2.608 2.608 0 0 1 117.314 8.716 A 2.16 2.16 0 0 1 116.566 7.286 A 3.095 3.095 0 0 1 116.543 6.904 A 2.264 2.264 0 0 1 117.294 5.185 A 3.067 3.067 0 0 1 117.524 4.99 A 3.5 3.5 0 0 1 118.846 4.375 Q 119.338 4.255 119.912 4.24 A 6.381 6.381 0 0 1 120.078 4.238 A 5.827 5.827 0 0 1 121.219 4.344 Q 121.91 4.481 122.45 4.8 A 3.327 3.327 0 0 1 122.822 5.054 Q 123.857 5.869 123.857 7.256 Z M 103.125 15 L 99.346 8.916 L 94.414 8.916 L 94.414 15 L 93.887 15 L 93.887 0.781 L 98.418 0.781 Q 100.557 0.781 101.821 1.885 A 3.626 3.626 0 0 1 103.052 4.282 A 5.141 5.141 0 0 1 103.086 4.883 A 3.863 3.863 0 0 1 102.183 7.427 Q 101.279 8.516 99.883 8.779 L 103.682 14.863 L 103.682 15 L 103.125 15 Z M 160.889 11.797 L 161.416 11.797 A 3.647 3.647 0 0 1 161.135 13.063 A 3.229 3.229 0 0 1 160.234 14.263 A 3.916 3.916 0 0 1 158.141 15.157 A 5.192 5.192 0 0 1 157.5 15.195 A 4.406 4.406 0 0 1 156.024 14.958 A 3.731 3.731 0 0 1 154.351 13.76 Q 153.184 12.324 153.184 9.863 L 153.184 9.512 A 8.021 8.021 0 0 1 153.333 7.918 Q 153.525 6.968 153.967 6.224 A 4.57 4.57 0 0 1 154.351 5.674 Q 155.518 4.238 157.48 4.238 Q 159.16 4.238 160.254 5.244 Q 161.348 6.25 161.416 7.92 L 160.889 7.92 A 3.736 3.736 0 0 0 160.681 6.826 A 2.993 2.993 0 0 0 159.888 5.63 A 3.198 3.198 0 0 0 158.163 4.816 A 4.431 4.431 0 0 0 157.48 4.766 A 3.931 3.931 0 0 0 156.24 4.952 A 3.183 3.183 0 0 0 154.712 6.04 A 4.307 4.307 0 0 0 153.985 7.48 Q 153.801 8.094 153.74 8.831 A 9.165 9.165 0 0 0 153.711 9.58 L 153.711 9.922 A 7.853 7.853 0 0 0 153.825 11.304 Q 154.05 12.564 154.722 13.403 A 3.284 3.284 0 0 0 157.122 14.653 A 4.614 4.614 0 0 0 157.5 14.668 A 4.438 4.438 0 0 0 158.581 14.543 A 3.258 3.258 0 0 0 159.868 13.906 A 2.727 2.727 0 0 0 160.841 12.204 A 3.789 3.789 0 0 0 160.889 11.797 Z M 40.244 15 L 39.639 15 Q 39.462 14.391 39.445 13.305 A 15.179 15.179 0 0 1 39.443 13.066 A 4.238 4.238 0 0 1 37.734 14.639 A 5.052 5.052 0 0 1 35.949 15.161 A 6.237 6.237 0 0 1 35.283 15.195 Q 33.818 15.195 32.925 14.399 A 2.617 2.617 0 0 1 32.035 12.483 A 3.537 3.537 0 0 1 32.031 12.324 A 2.589 2.589 0 0 1 32.932 10.313 A 3.642 3.642 0 0 1 33.345 9.995 A 4.89 4.89 0 0 1 34.766 9.363 Q 35.679 9.112 36.836 9.102 L 39.443 9.102 L 39.443 7.559 A 3.384 3.384 0 0 0 39.34 6.698 A 2.351 2.351 0 0 0 38.608 5.498 A 2.72 2.72 0 0 0 37.613 4.954 Q 37.202 4.826 36.707 4.785 A 5.883 5.883 0 0 0 36.221 4.766 A 4.644 4.644 0 0 0 35.096 4.895 A 3.463 3.463 0 0 0 33.809 5.508 A 2.732 2.732 0 0 0 33.229 6.1 A 2.112 2.112 0 0 0 32.842 7.344 L 32.314 7.324 A 2.61 2.61 0 0 1 33.147 5.401 A 3.774 3.774 0 0 1 33.447 5.137 A 4.123 4.123 0 0 1 35.527 4.281 A 5.439 5.439 0 0 1 36.221 4.238 Q 37.618 4.238 38.545 4.81 A 3.17 3.17 0 0 1 38.936 5.093 A 2.86 2.86 0 0 1 39.899 6.789 A 4.186 4.186 0 0 1 39.971 7.5 L 39.971 12.549 A 17.473 17.473 0 0 0 39.986 13.302 Q 40.032 14.365 40.219 14.852 A 1.464 1.464 0 0 0 40.244 14.912 L 40.244 15 Z M 81.631 15 L 81.025 15 Q 80.849 14.391 80.832 13.305 A 15.179 15.179 0 0 1 80.83 13.066 A 4.238 4.238 0 0 1 79.121 14.639 A 5.052 5.052 0 0 1 77.336 15.161 A 6.237 6.237 0 0 1 76.67 15.195 Q 75.205 15.195 74.312 14.399 A 2.617 2.617 0 0 1 73.422 12.483 A 3.537 3.537 0 0 1 73.418 12.324 A 2.589 2.589 0 0 1 74.319 10.313 A 3.642 3.642 0 0 1 74.731 9.995 A 4.89 4.89 0 0 1 76.153 9.363 Q 77.066 9.112 78.223 9.102 L 80.83 9.102 L 80.83 7.559 A 3.384 3.384 0 0 0 80.727 6.698 A 2.351 2.351 0 0 0 79.995 5.498 A 2.72 2.72 0 0 0 78.999 4.954 Q 78.589 4.826 78.094 4.785 A 5.883 5.883 0 0 0 77.607 4.766 A 4.644 4.644 0 0 0 76.483 4.895 A 3.463 3.463 0 0 0 75.195 5.508 A 2.732 2.732 0 0 0 74.616 6.1 A 2.112 2.112 0 0 0 74.229 7.344 L 73.701 7.324 A 2.61 2.61 0 0 1 74.534 5.401 A 3.774 3.774 0 0 1 74.834 5.137 A 4.123 4.123 0 0 1 76.914 4.281 A 5.439 5.439 0 0 1 77.607 4.238 Q 79.005 4.238 79.932 4.81 A 3.17 3.17 0 0 1 80.322 5.093 A 2.86 2.86 0 0 1 81.286 6.789 A 4.186 4.186 0 0 1 81.357 7.5 L 81.357 12.549 A 17.473 17.473 0 0 0 81.372 13.302 Q 81.419 14.365 81.606 14.852 A 1.464 1.464 0 0 0 81.631 14.912 L 81.631 15 Z M 144.287 15 L 143.682 15 Q 143.505 14.391 143.488 13.305 A 15.179 15.179 0 0 1 143.486 13.066 A 4.238 4.238 0 0 1 141.777 14.639 A 5.052 5.052 0 0 1 139.992 15.161 A 6.237 6.237 0 0 1 139.326 15.195 Q 137.861 15.195 136.968 14.399 A 2.617 2.617 0 0 1 136.078 12.483 A 3.537 3.537 0 0 1 136.074 12.324 A 2.589 2.589 0 0 1 136.975 10.313 A 3.642 3.642 0 0 1 137.388 9.995 A 4.89 4.89 0 0 1 138.809 9.363 Q 139.722 9.112 140.879 9.102 L 143.486 9.102 L 143.486 7.559 A 3.384 3.384 0 0 0 143.383 6.698 A 2.351 2.351 0 0 0 142.651 5.498 A 2.72 2.72 0 0 0 141.656 4.954 Q 141.245 4.826 140.75 4.785 A 5.883 5.883 0 0 0 140.264 4.766 A 4.644 4.644 0 0 0 139.139 4.895 A 3.463 3.463 0 0 0 137.852 5.508 A 2.732 2.732 0 0 0 137.272 6.1 A 2.112 2.112 0 0 0 136.885 7.344 L 136.357 7.324 A 2.61 2.61 0 0 1 137.19 5.401 A 3.774 3.774 0 0 1 137.49 5.137 A 4.123 4.123 0 0 1 139.57 4.281 A 5.439 5.439 0 0 1 140.264 4.238 Q 141.661 4.238 142.588 4.81 A 3.17 3.17 0 0 1 142.979 5.093 A 2.86 2.86 0 0 1 143.942 6.789 A 4.186 4.186 0 0 1 144.014 7.5 L 144.014 12.549 A 17.473 17.473 0 0 0 144.029 13.302 Q 144.075 14.365 144.262 14.852 A 1.464 1.464 0 0 0 144.287 14.912 L 144.287 15 Z M 10.957 9.951 L 10.957 9.512 A 6.369 6.369 0 0 1 11.232 7.618 A 5.772 5.772 0 0 1 11.543 6.826 A 4.977 4.977 0 0 1 12.366 5.596 A 4.354 4.354 0 0 1 13.154 4.922 Q 14.18 4.238 15.391 4.238 A 4.04 4.04 0 0 1 16.86 4.497 A 3.657 3.657 0 0 1 18.281 5.498 A 4.318 4.318 0 0 1 19.278 7.52 A 6.227 6.227 0 0 1 19.404 8.809 L 19.404 9.365 L 11.484 9.365 L 11.484 9.941 A 5.323 5.323 0 0 0 12.026 12.329 Q 12.568 13.428 13.521 14.053 Q 14.473 14.678 15.586 14.678 Q 16.65 14.678 17.397 14.321 Q 18.145 13.965 18.721 13.223 L 19.092 13.486 A 3.83 3.83 0 0 1 16.284 15.154 A 5.655 5.655 0 0 1 15.586 15.195 Q 14.307 15.195 13.237 14.507 Q 12.168 13.818 11.563 12.617 A 5.708 5.708 0 0 1 10.972 10.402 A 6.806 6.806 0 0 1 10.957 9.951 Z M 105.918 9.951 L 105.918 9.512 A 6.369 6.369 0 0 1 106.193 7.618 A 5.772 5.772 0 0 1 106.504 6.826 A 4.977 4.977 0 0 1 107.327 5.596 A 4.354 4.354 0 0 1 108.115 4.922 Q 109.141 4.238 110.352 4.238 A 4.04 4.04 0 0 1 111.821 4.497 A 3.657 3.657 0 0 1 113.242 5.498 A 4.318 4.318 0 0 1 114.238 7.52 A 6.227 6.227 0 0 1 114.365 8.809 L 114.365 9.365 L 106.445 9.365 L 106.445 9.941 A 5.323 5.323 0 0 0 106.987 12.329 Q 107.529 13.428 108.481 14.053 Q 109.434 14.678 110.547 14.678 Q 111.611 14.678 112.358 14.321 Q 113.105 13.965 113.682 13.223 L 114.053 13.486 A 3.83 3.83 0 0 1 111.245 15.154 A 5.655 5.655 0 0 1 110.547 15.195 Q 109.268 15.195 108.198 14.507 Q 107.129 13.818 106.523 12.617 A 5.708 5.708 0 0 1 105.933 10.402 A 6.806 6.806 0 0 1 105.918 9.951 Z M 125.947 9.951 L 125.947 9.512 A 6.369 6.369 0 0 1 126.223 7.618 A 5.772 5.772 0 0 1 126.533 6.826 A 4.977 4.977 0 0 1 127.356 5.596 A 4.354 4.354 0 0 1 128.145 4.922 Q 129.17 4.238 130.381 4.238 A 4.04 4.04 0 0 1 131.85 4.497 A 3.657 3.657 0 0 1 133.271 5.498 A 4.318 4.318 0 0 1 134.268 7.52 A 6.227 6.227 0 0 1 134.395 8.809 L 134.395 9.365 L 126.475 9.365 L 126.475 9.941 A 5.323 5.323 0 0 0 127.017 12.329 Q 127.559 13.428 128.511 14.053 Q 129.463 14.678 130.576 14.678 Q 131.641 14.678 132.388 14.321 Q 133.135 13.965 133.711 13.223 L 134.082 13.486 A 3.83 3.83 0 0 1 131.275 15.154 A 5.655 5.655 0 0 1 130.576 15.195 Q 129.297 15.195 128.228 14.507 Q 127.158 13.818 126.553 12.617 A 5.708 5.708 0 0 1 125.962 10.402 A 6.806 6.806 0 0 1 125.947 9.951 Z M 4.58 15 L 0 15 L 0 0.781 L 3.74 0.781 Q 5.178 0.781 6.177 1.147 A 3.703 3.703 0 0 1 7.212 1.714 A 3.022 3.022 0 0 1 8.322 3.625 A 4.561 4.561 0 0 1 8.389 4.424 A 4.182 4.182 0 0 1 8.281 5.399 A 3.043 3.043 0 0 1 7.734 6.563 A 2.821 2.821 0 0 1 6.351 7.526 A 3.78 3.78 0 0 1 5.889 7.646 A 3.558 3.558 0 0 1 8.135 8.813 A 3.284 3.284 0 0 1 9.033 11.084 A 4.511 4.511 0 0 1 8.868 12.338 A 3.369 3.369 0 0 1 7.856 13.95 A 3.9 3.9 0 0 1 6.306 14.781 Q 5.54 15 4.58 15 Z M 42.529 4.434 L 46.328 14.16 L 50.127 4.434 L 50.693 4.434 L 46.582 15 L 46.064 15 L 41.963 4.434 L 42.529 4.434 Z M 72.617 4.346 L 72.559 4.814 L 71.875 4.756 Q 70.527 4.756 69.619 5.63 A 3.739 3.739 0 0 0 68.787 6.854 Q 68.572 7.349 68.452 7.951 A 6.759 6.759 0 0 0 68.428 8.076 L 68.428 15 L 67.9 15 L 67.9 4.434 L 68.428 4.434 L 68.428 6.631 A 4.205 4.205 0 0 1 69.037 5.548 A 3.645 3.645 0 0 1 69.717 4.883 A 3.148 3.148 0 0 1 70.998 4.322 A 4.403 4.403 0 0 1 71.875 4.238 Q 72.334 4.238 72.617 4.346 Z M 152.129 4.346 L 152.07 4.814 L 151.387 4.756 Q 150.039 4.756 149.131 5.63 A 3.739 3.739 0 0 0 148.298 6.854 Q 148.083 7.349 147.963 7.951 A 6.759 6.759 0 0 0 147.939 8.076 L 147.939 15 L 147.412 15 L 147.412 4.434 L 147.939 4.434 L 147.939 6.631 A 4.205 4.205 0 0 1 148.548 5.548 A 3.645 3.645 0 0 1 149.229 4.883 A 3.148 3.148 0 0 1 150.51 4.322 A 4.403 4.403 0 0 1 151.387 4.238 Q 151.846 4.238 152.129 4.346 Z M 56.094 9.98 L 56.094 9.512 A 6.773 6.773 0 0 1 56.273 7.927 A 5.638 5.638 0 0 1 56.675 6.792 A 4.634 4.634 0 0 1 57.658 5.425 A 4.328 4.328 0 0 1 58.315 4.912 Q 59.375 4.238 60.713 4.238 A 4.617 4.617 0 0 1 62.302 4.507 A 4.267 4.267 0 0 1 63.096 4.893 A 4.358 4.358 0 0 1 64.624 6.523 A 5.29 5.29 0 0 1 64.741 6.748 A 5.864 5.864 0 0 1 65.3 8.719 A 7.224 7.224 0 0 1 65.342 9.453 L 65.342 9.922 A 6.906 6.906 0 0 1 65.179 11.45 A 5.633 5.633 0 0 1 64.766 12.646 A 4.579 4.579 0 0 1 63.745 14.049 A 4.331 4.331 0 0 1 63.13 14.521 Q 62.07 15.195 60.732 15.195 A 4.61 4.61 0 0 1 59.132 14.923 A 4.263 4.263 0 0 1 58.335 14.531 A 4.411 4.411 0 0 1 56.765 12.818 A 5.282 5.282 0 0 1 56.689 12.671 A 5.858 5.858 0 0 1 56.135 10.709 A 7.198 7.198 0 0 1 56.094 9.98 Z M 85.41 0 L 85.41 15 L 84.883 15 L 84.883 0 L 85.41 0 Z M 56.621 9.609 L 56.621 9.922 Q 56.621 11.24 57.144 12.339 A 4.374 4.374 0 0 0 57.909 13.473 A 3.894 3.894 0 0 0 58.599 14.053 A 3.736 3.736 0 0 0 60.51 14.663 A 4.549 4.549 0 0 0 60.732 14.668 A 3.906 3.906 0 0 0 62.279 14.37 A 3.717 3.717 0 0 0 63.677 13.311 A 4.76 4.76 0 0 0 64.686 11.163 A 6.752 6.752 0 0 0 64.814 9.814 L 64.814 9.512 A 5.591 5.591 0 0 0 64.473 7.548 A 5.296 5.296 0 0 0 64.287 7.109 A 4.452 4.452 0 0 0 63.524 5.976 A 3.942 3.942 0 0 0 62.827 5.386 Q 61.895 4.766 60.713 4.766 A 3.848 3.848 0 0 0 59.119 5.089 A 3.755 3.755 0 0 0 57.764 6.143 A 4.893 4.893 0 0 0 56.707 8.52 A 6.694 6.694 0 0 0 56.621 9.609 Z M 94.414 1.309 L 94.414 8.389 L 98.896 8.389 A 4.399 4.399 0 0 0 100.082 8.237 A 3.326 3.326 0 0 0 101.548 7.393 A 3.349 3.349 0 0 0 102.556 5.024 A 4.428 4.428 0 0 0 102.559 4.883 A 3.972 3.972 0 0 0 102.401 3.737 A 3.056 3.056 0 0 0 101.44 2.266 Q 100.322 1.309 98.379 1.309 L 94.414 1.309 Z M 4.844 7.979 L 0.527 7.979 L 0.527 14.473 L 4.639 14.473 Q 6.046 14.473 6.982 13.931 A 3.194 3.194 0 0 0 7.476 13.579 Q 8.506 12.686 8.506 11.104 A 2.971 2.971 0 0 0 8.257 9.874 A 2.888 2.888 0 0 0 7.51 8.882 Q 6.54 8.031 4.932 7.981 A 6.415 6.415 0 0 0 4.844 7.979 Z M 0.527 1.309 L 0.527 7.451 L 3.936 7.451 A 8.095 8.095 0 0 0 5.005 7.385 Q 6.172 7.229 6.865 6.704 A 2.378 2.378 0 0 0 7.735 5.368 Q 7.842 4.96 7.851 4.469 A 4.906 4.906 0 0 0 7.852 4.385 A 3.232 3.232 0 0 0 7.57 2.987 Q 6.928 1.633 4.822 1.371 A 8.679 8.679 0 0 0 3.857 1.309 L 0.527 1.309 Z M 53.428 4.434 L 53.428 15 L 52.9 15 L 52.9 4.434 L 53.428 4.434 Z M 39.443 12.148 L 39.443 9.639 L 37.002 9.639 Q 35.517 9.639 34.49 10.024 A 3.831 3.831 0 0 0 33.535 10.537 A 2.716 2.716 0 0 0 32.959 11.11 A 2.08 2.08 0 0 0 32.559 12.363 A 2.075 2.075 0 0 0 33.225 13.908 A 2.771 2.771 0 0 0 33.33 14.004 A 2.698 2.698 0 0 0 34.735 14.638 A 3.676 3.676 0 0 0 35.283 14.678 A 5.563 5.563 0 0 0 36.543 14.541 A 4.258 4.258 0 0 0 37.837 14.014 A 4.113 4.113 0 0 0 39.443 12.148 Z M 80.83 12.148 L 80.83 9.639 L 78.389 9.639 Q 76.904 9.639 75.877 10.024 A 3.831 3.831 0 0 0 74.922 10.537 A 2.716 2.716 0 0 0 74.346 11.11 A 2.08 2.08 0 0 0 73.945 12.363 A 2.075 2.075 0 0 0 74.612 13.908 A 2.771 2.771 0 0 0 74.717 14.004 A 2.698 2.698 0 0 0 76.122 14.638 A 3.676 3.676 0 0 0 76.67 14.678 A 5.563 5.563 0 0 0 77.93 14.541 A 4.258 4.258 0 0 0 79.224 14.014 A 4.113 4.113 0 0 0 80.83 12.148 Z M 143.486 12.148 L 143.486 9.639 L 141.045 9.639 Q 139.56 9.639 138.533 10.024 A 3.831 3.831 0 0 0 137.578 10.537 A 2.716 2.716 0 0 0 137.002 11.11 A 2.08 2.08 0 0 0 136.602 12.363 A 2.075 2.075 0 0 0 137.268 13.908 A 2.771 2.771 0 0 0 137.373 14.004 A 2.698 2.698 0 0 0 138.778 14.638 A 3.676 3.676 0 0 0 139.326 14.678 A 5.563 5.563 0 0 0 140.586 14.541 A 4.258 4.258 0 0 0 141.88 14.014 A 4.113 4.113 0 0 0 143.486 12.148 Z M 11.514 8.838 L 18.877 8.838 L 18.877 8.711 Q 18.877 7.637 18.423 6.714 Q 17.969 5.791 17.173 5.278 A 3.221 3.221 0 0 0 15.391 4.766 A 3.433 3.433 0 0 0 12.875 5.808 A 4.288 4.288 0 0 0 12.773 5.913 A 4.653 4.653 0 0 0 11.643 8.065 A 6.108 6.108 0 0 0 11.514 8.838 Z M 106.475 8.838 L 113.838 8.838 L 113.838 8.711 Q 113.838 7.637 113.384 6.714 Q 112.93 5.791 112.134 5.278 A 3.221 3.221 0 0 0 110.352 4.766 A 3.433 3.433 0 0 0 107.836 5.808 A 4.288 4.288 0 0 0 107.734 5.913 A 4.653 4.653 0 0 0 106.604 8.065 A 6.108 6.108 0 0 0 106.475 8.838 Z M 126.504 8.838 L 133.867 8.838 L 133.867 8.711 Q 133.867 7.637 133.413 6.714 Q 132.959 5.791 132.163 5.278 A 3.221 3.221 0 0 0 130.381 4.766 A 3.433 3.433 0 0 0 127.865 5.808 A 4.288 4.288 0 0 0 127.764 5.913 A 4.653 4.653 0 0 0 126.634 8.065 A 6.108 6.108 0 0 0 126.504 8.838 Z M 52.783 0.747 A 0.535 0.535 0 0 0 52.627 1.133 A 0.644 0.644 0 0 0 52.627 1.14 A 0.517 0.517 0 0 0 52.783 1.514 A 0.537 0.537 0 0 0 52.922 1.615 A 0.531 0.531 0 0 0 53.164 1.67 A 0.535 0.535 0 0 0 53.55 1.514 A 0.618 0.618 0 0 0 53.56 1.504 A 0.509 0.509 0 0 0 53.711 1.133 Q 53.711 0.908 53.55 0.747 A 0.65 0.65 0 0 0 53.545 0.742 A 0.525 0.525 0 0 0 53.164 0.586 A 0.618 0.618 0 0 0 53.15 0.586 A 0.509 0.509 0 0 0 52.783 0.747 Z" vector-effect="non-scaling-stroke"/></g></svg>