<svg width="58" height="20" viewBox="0 0 58 20" fill="none" xmlns="http://www.w3.org/2000/svg">
<path d="M0.796875 15V0.78125H4.77148C5.93685 0.78125 6.98177 1.04818 7.90625 1.58203C8.83073 2.10938 9.55013 2.86784 10.0645 3.85742C10.5853 4.84701 10.8457 5.97331 10.8457 7.23633V8.54492C10.8457 9.81445 10.5885 10.9408 10.0742 11.9238C9.5599 12.9069 8.83398 13.6654 7.89648 14.1992C6.96549 14.7331 5.89453 15 4.68359 15H0.796875ZM1.99805 1.80664V13.9844H4.69336C6.19076 13.9844 7.39193 13.4896 8.29688 12.5C9.20182 11.5039 9.6543 10.1595 9.6543 8.4668V7.2168C9.6543 5.58268 9.20833 4.27409 8.31641 3.29102C7.42448 2.30794 6.24935 1.81315 4.79102 1.80664H1.99805ZM17.7207 15.1953C16.8223 15.1953 16.0085 14.974 15.2793 14.5312C14.5566 14.0885 13.9935 13.4733 13.5898 12.6855C13.1862 11.8913 12.9844 11.0026 12.9844 10.0195V9.59961C12.9844 8.58398 13.1797 7.66927 13.5703 6.85547C13.9674 6.04167 14.5176 5.40365 15.2207 4.94141C15.9238 4.47266 16.6855 4.23828 17.5059 4.23828C18.7884 4.23828 19.804 4.67773 20.5527 5.55664C21.3079 6.42904 21.6855 7.6237 21.6855 9.14062V9.79492H14.1465V10.0195C14.1465 11.2174 14.4883 12.2168 15.1719 13.0176C15.862 13.8118 16.7279 14.209 17.7695 14.209C18.3945 14.209 18.9447 14.0951 19.4199 13.8672C19.9017 13.6393 20.3379 13.2747 20.7285 12.7734L21.4609 13.3301C20.6016 14.5736 19.3548 15.1953 17.7207 15.1953ZM17.5059 5.23438C16.627 5.23438 15.8848 5.55664 15.2793 6.20117C14.6803 6.8457 14.3158 7.71159 14.1855 8.79883H20.5234V8.67188C20.4909 7.65625 20.2012 6.82943 19.6543 6.19141C19.1074 5.55339 18.3913 5.23438 17.5059 5.23438ZM30.2891 12.3145C30.2891 11.735 30.0547 11.2695 29.5859 10.918C29.1237 10.5664 28.4238 10.293 27.4863 10.0977C26.5488 9.89583 25.8197 9.66797 25.2988 9.41406C24.7845 9.15365 24.4004 8.83789 24.1465 8.4668C23.8991 8.0957 23.7754 7.64648 23.7754 7.11914C23.7754 6.28581 24.1237 5.59896 24.8203 5.05859C25.5169 4.51172 26.4089 4.23828 27.4961 4.23828C28.6745 4.23828 29.6185 4.53125 30.3281 5.11719C31.0443 5.69661 31.4023 6.45508 31.4023 7.39258H30.2305C30.2305 6.77409 29.9701 6.25977 29.4492 5.84961C28.9349 5.43945 28.2839 5.23438 27.4961 5.23438C26.7279 5.23438 26.1094 5.4069 25.6406 5.75195C25.1784 6.09049 24.9473 6.5332 24.9473 7.08008C24.9473 7.60742 25.1393 8.01758 25.5234 8.31055C25.9141 8.59701 26.6204 8.86068 27.6426 9.10156C28.6712 9.34245 29.4395 9.59961 29.9473 9.87305C30.4616 10.1465 30.8424 10.4753 31.0898 10.8594C31.3372 11.2435 31.4609 11.709 31.4609 12.2559C31.4609 13.1478 31.0996 13.8607 30.377 14.3945C29.6608 14.9284 28.7233 15.1953 27.5645 15.1953C26.334 15.1953 25.3346 14.8991 24.5664 14.3066C23.8047 13.7077 23.4238 12.9525 23.4238 12.041H24.5957C24.6413 12.7246 24.9277 13.2585 25.4551 13.6426C25.9889 14.0202 26.6921 14.209 27.5645 14.209C28.3783 14.209 29.0358 14.0299 29.5371 13.6719C30.0384 13.3138 30.2891 12.8613 30.2891 12.3145ZM35.4062 15H34.2344V4.43359H35.4062V15ZM34.0293 1.37695C34.0293 1.1556 34.1009 0.970052 34.2441 0.820312C34.3874 0.664062 34.5827 0.585938 34.8301 0.585938C35.0775 0.585938 35.2728 0.664062 35.416 0.820312C35.5658 0.970052 35.6406 1.1556 35.6406 1.37695C35.6406 1.59831 35.5658 1.78385 35.416 1.93359C35.2728 2.08333 35.0775 2.1582 34.8301 2.1582C34.5827 2.1582 34.3874 2.08333 34.2441 1.93359C34.1009 1.78385 34.0293 1.59831 34.0293 1.37695ZM38.1211 9.61914C38.1211 7.96549 38.4857 6.6569 39.2148 5.69336C39.9505 4.72331 40.9466 4.23828 42.2031 4.23828C43.6419 4.23828 44.7357 4.8112 45.4844 5.95703L45.543 4.43359H46.6367V14.7852C46.6367 16.1458 46.2559 17.2233 45.4941 18.0176C44.7324 18.8118 43.7005 19.209 42.3984 19.209C41.6628 19.209 40.9596 19.043 40.2891 18.7109C39.625 18.3854 39.1009 17.9492 38.7168 17.4023L39.3711 16.6992C40.1979 17.7148 41.181 18.2227 42.3203 18.2227C43.2969 18.2227 44.0586 17.9329 44.6055 17.3535C45.1523 16.7806 45.4355 15.9831 45.4551 14.9609V13.6328C44.7064 14.6745 43.6159 15.1953 42.1836 15.1953C40.9596 15.1953 39.9766 14.707 39.2344 13.7305C38.4922 12.7539 38.1211 11.4355 38.1211 9.77539V9.61914ZM39.3027 9.82422C39.3027 11.1719 39.5729 12.2363 40.1133 13.0176C40.6536 13.7923 41.4154 14.1797 42.3984 14.1797C43.8372 14.1797 44.8561 13.5352 45.4551 12.2461V7.33398C45.1816 6.6569 44.7878 6.14258 44.2734 5.79102C43.7591 5.43294 43.1406 5.25391 42.418 5.25391C41.4349 5.25391 40.6699 5.64128 40.123 6.41602C39.5762 7.18424 39.3027 8.32031 39.3027 9.82422ZM50.7969 4.43359L50.8359 6.24023C51.2331 5.58919 51.7279 5.0944 52.3203 4.75586C52.9128 4.41081 53.5671 4.23828 54.2832 4.23828C55.416 4.23828 56.2591 4.55729 56.8125 5.19531C57.3659 5.83333 57.6458 6.79036 57.6523 8.06641V15H56.4902V8.05664C56.4837 7.11263 56.2819 6.40951 55.8848 5.94727C55.4941 5.48503 54.8659 5.25391 54 5.25391C53.2773 5.25391 52.6361 5.48177 52.0762 5.9375C51.5228 6.38672 51.1126 6.99544 50.8457 7.76367V15H49.6836V4.43359H50.7969Z" fill="white"/>
</svg>
