<svg width="181.582" height="19.258" viewBox="0 0 181.582 19.258" xmlns="http://www.w3.org/2000/svg"><g id="svgGroup" stroke-linecap="round" fill-rule="evenodd" font-size="9pt" stroke="#000" stroke-width="0.25mm" fill="none" style="stroke:#000;stroke-width:0.25mm;fill:none"><path d="M 9.189 0.781 L 9.717 0.781 L 9.717 10.41 Q 9.717 12.666 8.408 13.931 A 4.367 4.367 0 0 1 6.291 15.046 A 6.453 6.453 0 0 1 4.863 15.195 A 6.397 6.397 0 0 1 3.376 15.032 A 4.351 4.351 0 0 1 1.318 13.931 A 4.197 4.197 0 0 1 0.136 11.757 A 6.218 6.218 0 0 1 0 10.449 L 0 0.781 L 0.527 0.781 L 0.527 10.391 A 5.296 5.296 0 0 0 0.687 11.729 A 3.76 3.76 0 0 0 1.714 13.516 A 3.995 3.995 0 0 0 3.821 14.577 A 5.705 5.705 0 0 0 4.863 14.668 A 5.428 5.428 0 0 0 6.226 14.506 A 3.904 3.904 0 0 0 8.008 13.516 A 3.818 3.818 0 0 0 9.085 11.485 A 5.57 5.57 0 0 0 9.189 10.381 L 9.189 0.781 Z M 162.48 9.746 L 162.48 9.609 A 9.692 9.692 0 0 1 162.595 8.069 Q 162.83 6.614 163.545 5.659 A 3.388 3.388 0 0 1 166.012 4.261 A 4.486 4.486 0 0 1 166.465 4.238 Q 167.646 4.238 168.564 4.78 A 3.807 3.807 0 0 1 169.813 5.986 A 4.737 4.737 0 0 1 170.039 6.367 L 170.039 4.434 L 170.576 4.434 L 170.576 14.814 A 6.546 6.546 0 0 1 170.452 16.129 Q 170.288 16.928 169.908 17.543 A 3.623 3.623 0 0 1 169.502 18.081 A 3.543 3.543 0 0 1 167.353 19.202 A 5.077 5.077 0 0 1 166.582 19.258 A 4.286 4.286 0 0 1 165.145 19.021 A 3.99 3.99 0 0 1 164.634 18.799 A 4.279 4.279 0 0 1 163.207 17.59 A 5 5 0 0 1 163.125 17.48 L 163.496 17.129 Q 164.111 17.91 164.844 18.325 A 3.154 3.154 0 0 0 165.914 18.691 A 4.133 4.133 0 0 0 166.563 18.74 A 4.304 4.304 0 0 0 167.62 18.618 A 2.938 2.938 0 0 0 169.102 17.749 A 3.325 3.325 0 0 0 169.818 16.466 Q 169.974 15.965 170.02 15.363 A 6.774 6.774 0 0 0 170.039 14.951 L 170.039 13.33 A 3.687 3.687 0 0 1 168.56 14.712 A 4.32 4.32 0 0 1 167.021 15.165 A 5.357 5.357 0 0 1 166.445 15.195 Q 164.609 15.195 163.545 13.74 A 5.049 5.049 0 0 1 162.785 12.153 Q 162.48 11.105 162.48 9.746 Z M 20.234 7.256 L 19.697 7.256 Q 19.697 6.191 18.799 5.479 Q 17.926 4.786 16.538 4.766 A 5.767 5.767 0 0 0 16.455 4.766 A 5.142 5.142 0 0 0 15.572 4.837 Q 14.791 4.973 14.258 5.371 A 2.243 2.243 0 0 0 13.78 5.845 A 1.723 1.723 0 0 0 13.447 6.885 Q 13.447 7.388 13.598 7.738 A 1.302 1.302 0 0 0 13.75 8.003 Q 14.053 8.408 14.736 8.735 A 5.454 5.454 0 0 0 15.225 8.937 Q 15.744 9.126 16.481 9.306 A 20.517 20.517 0 0 0 16.729 9.365 Q 18.037 9.668 18.799 10.078 A 3.722 3.722 0 0 1 19.311 10.407 Q 19.583 10.617 19.769 10.857 A 2.059 2.059 0 0 1 19.902 11.05 A 2.276 2.276 0 0 1 20.186 11.793 A 3.203 3.203 0 0 1 20.244 12.422 A 2.448 2.448 0 0 1 19.988 13.55 Q 19.731 14.053 19.219 14.434 Q 18.193 15.195 16.533 15.195 A 6.395 6.395 0 0 1 15.345 15.091 Q 14.648 14.959 14.094 14.66 A 3.556 3.556 0 0 1 13.667 14.39 A 2.869 2.869 0 0 1 12.985 13.693 A 2.406 2.406 0 0 1 12.578 12.314 L 13.105 12.314 Q 13.184 13.428 14.087 14.048 A 3.22 3.22 0 0 0 15.037 14.483 Q 15.465 14.604 15.976 14.646 A 6.831 6.831 0 0 0 16.533 14.668 Q 17.754 14.668 18.58 14.178 A 2.903 2.903 0 0 0 18.833 14.009 A 2.565 2.565 0 0 0 19.327 13.534 A 1.779 1.779 0 0 0 19.717 12.412 Q 19.717 10.581 16.745 9.865 A 11.207 11.207 0 0 0 16.436 9.795 A 13.348 13.348 0 0 1 15.472 9.555 Q 14.545 9.284 13.995 8.937 A 2.608 2.608 0 0 1 13.691 8.716 A 2.16 2.16 0 0 1 12.943 7.286 A 3.095 3.095 0 0 1 12.92 6.904 A 2.264 2.264 0 0 1 13.671 5.185 A 3.067 3.067 0 0 1 13.901 4.99 A 3.5 3.5 0 0 1 15.223 4.375 Q 15.715 4.255 16.289 4.24 A 6.381 6.381 0 0 1 16.455 4.238 A 5.827 5.827 0 0 1 17.596 4.344 Q 18.286 4.481 18.827 4.8 A 3.327 3.327 0 0 1 19.199 5.054 Q 20.234 5.869 20.234 7.256 Z M 155.938 7.256 L 155.4 7.256 Q 155.4 6.191 154.502 5.479 Q 153.629 4.786 152.241 4.766 A 5.767 5.767 0 0 0 152.158 4.766 A 5.142 5.142 0 0 0 151.275 4.837 Q 150.494 4.973 149.961 5.371 A 2.243 2.243 0 0 0 149.483 5.845 A 1.723 1.723 0 0 0 149.15 6.885 Q 149.15 7.388 149.301 7.738 A 1.302 1.302 0 0 0 149.453 8.003 Q 149.756 8.408 150.439 8.735 A 5.454 5.454 0 0 0 150.928 8.937 Q 151.447 9.126 152.184 9.306 A 20.517 20.517 0 0 0 152.432 9.365 Q 153.74 9.668 154.502 10.078 A 3.722 3.722 0 0 1 155.014 10.407 Q 155.286 10.617 155.472 10.857 A 2.059 2.059 0 0 1 155.605 11.05 A 2.276 2.276 0 0 1 155.889 11.793 A 3.203 3.203 0 0 1 155.947 12.422 A 2.448 2.448 0 0 1 155.691 13.55 Q 155.435 14.053 154.922 14.434 Q 153.896 15.195 152.236 15.195 A 6.395 6.395 0 0 1 151.048 15.091 Q 150.351 14.959 149.797 14.66 A 3.556 3.556 0 0 1 149.37 14.39 A 2.869 2.869 0 0 1 148.688 13.693 A 2.406 2.406 0 0 1 148.281 12.314 L 148.809 12.314 Q 148.887 13.428 149.79 14.048 A 3.22 3.22 0 0 0 150.74 14.483 Q 151.168 14.604 151.679 14.646 A 6.831 6.831 0 0 0 152.236 14.668 Q 153.458 14.668 154.283 14.178 A 2.903 2.903 0 0 0 154.536 14.009 A 2.565 2.565 0 0 0 155.03 13.534 A 1.779 1.779 0 0 0 155.42 12.412 Q 155.42 10.581 152.448 9.865 A 11.207 11.207 0 0 0 152.139 9.795 A 13.348 13.348 0 0 1 151.175 9.555 Q 150.248 9.284 149.699 8.937 A 2.608 2.608 0 0 1 149.395 8.716 A 2.16 2.16 0 0 1 148.646 7.286 A 3.095 3.095 0 0 1 148.623 6.904 A 2.264 2.264 0 0 1 149.374 5.185 A 3.067 3.067 0 0 1 149.605 4.99 A 3.5 3.5 0 0 1 150.926 4.375 Q 151.418 4.255 151.993 4.24 A 6.381 6.381 0 0 1 152.158 4.238 A 5.827 5.827 0 0 1 153.3 4.344 Q 153.99 4.481 154.531 4.8 A 3.327 3.327 0 0 1 154.902 5.054 Q 155.938 5.869 155.938 7.256 Z M 66.602 4.434 L 66.602 6.895 A 4.674 4.674 0 0 1 67.401 5.601 A 4.207 4.207 0 0 1 68.125 4.951 A 3.764 3.764 0 0 1 70.352 4.238 Q 72.051 4.238 72.876 5.2 Q 73.701 6.162 73.711 8.105 L 73.711 15 L 73.184 15 L 73.184 8.086 Q 73.174 6.408 72.507 5.592 A 2.097 2.097 0 0 0 72.49 5.571 A 2.114 2.114 0 0 0 71.521 4.929 Q 71.167 4.81 70.733 4.773 A 4.811 4.811 0 0 0 70.322 4.756 A 3.286 3.286 0 0 0 67.954 5.728 A 4.717 4.717 0 0 0 66.794 7.567 A 6.006 6.006 0 0 0 66.602 8.232 L 66.602 15 L 66.074 15 L 66.074 4.434 L 66.602 4.434 Z M 174.473 4.434 L 174.473 6.895 A 4.674 4.674 0 0 1 175.272 5.601 A 4.207 4.207 0 0 1 175.996 4.951 A 3.764 3.764 0 0 1 178.223 4.238 Q 179.922 4.238 180.747 5.2 Q 181.572 6.162 181.582 8.105 L 181.582 15 L 181.055 15 L 181.055 8.086 Q 181.045 6.408 180.379 5.592 A 2.097 2.097 0 0 0 180.361 5.571 A 2.114 2.114 0 0 0 179.392 4.929 Q 179.038 4.81 178.604 4.773 A 4.811 4.811 0 0 0 178.193 4.756 A 3.286 3.286 0 0 0 175.825 5.728 A 4.717 4.717 0 0 0 174.665 7.567 A 6.006 6.006 0 0 0 174.473 8.232 L 174.473 15 L 173.945 15 L 173.945 4.434 L 174.473 4.434 Z M 52.822 11.797 L 53.35 11.797 A 3.647 3.647 0 0 1 53.068 13.063 A 3.229 3.229 0 0 1 52.168 14.263 A 3.916 3.916 0 0 1 50.074 15.157 A 5.192 5.192 0 0 1 49.434 15.195 A 4.406 4.406 0 0 1 47.957 14.958 A 3.731 3.731 0 0 1 46.284 13.76 Q 45.117 12.324 45.117 9.863 L 45.117 9.512 A 8.021 8.021 0 0 1 45.266 7.918 Q 45.459 6.968 45.9 6.224 A 4.57 4.57 0 0 1 46.284 5.674 Q 47.451 4.238 49.414 4.238 Q 51.094 4.238 52.188 5.244 Q 53.281 6.25 53.35 7.92 L 52.822 7.92 A 3.736 3.736 0 0 0 52.614 6.826 A 2.993 2.993 0 0 0 51.821 5.63 A 3.198 3.198 0 0 0 50.097 4.816 A 4.431 4.431 0 0 0 49.414 4.766 A 3.931 3.931 0 0 0 48.173 4.952 A 3.183 3.183 0 0 0 46.646 6.04 A 4.307 4.307 0 0 0 45.919 7.48 Q 45.735 8.094 45.674 8.831 A 9.165 9.165 0 0 0 45.645 9.58 L 45.645 9.922 A 7.853 7.853 0 0 0 45.759 11.304 Q 45.984 12.564 46.655 13.403 A 3.284 3.284 0 0 0 49.056 14.653 A 4.614 4.614 0 0 0 49.434 14.668 A 4.438 4.438 0 0 0 50.515 14.543 A 3.258 3.258 0 0 0 51.802 13.906 A 2.727 2.727 0 0 0 52.774 12.204 A 3.789 3.789 0 0 0 52.822 11.797 Z M 109.521 9.746 L 109.521 9.609 A 9.692 9.692 0 0 1 109.636 8.069 Q 109.871 6.614 110.586 5.659 A 3.388 3.388 0 0 1 113.054 4.261 A 4.486 4.486 0 0 1 113.506 4.238 Q 114.697 4.238 115.61 4.775 A 3.747 3.747 0 0 1 116.775 5.863 A 4.788 4.788 0 0 1 117.09 6.377 L 117.09 0 L 117.617 0 L 117.617 15 L 117.09 15 L 117.09 13.311 Q 116.553 14.209 115.615 14.702 A 4.298 4.298 0 0 1 114.066 15.164 A 5.334 5.334 0 0 1 113.486 15.195 Q 111.65 15.195 110.586 13.74 A 5.049 5.049 0 0 1 109.826 12.153 Q 109.521 11.105 109.521 9.746 Z M 22.324 9.951 L 22.324 9.512 A 6.369 6.369 0 0 1 22.6 7.618 A 5.772 5.772 0 0 1 22.91 6.826 A 4.977 4.977 0 0 1 23.733 5.596 A 4.354 4.354 0 0 1 24.521 4.922 Q 25.547 4.238 26.758 4.238 A 4.04 4.04 0 0 1 28.227 4.497 A 3.657 3.657 0 0 1 29.648 5.498 A 4.318 4.318 0 0 1 30.645 7.52 A 6.227 6.227 0 0 1 30.771 8.809 L 30.771 9.365 L 22.852 9.365 L 22.852 9.941 A 5.323 5.323 0 0 0 23.394 12.329 Q 23.936 13.428 24.888 14.053 Q 25.84 14.678 26.953 14.678 Q 28.018 14.678 28.765 14.321 Q 29.512 13.965 30.088 13.223 L 30.459 13.486 A 3.83 3.83 0 0 1 27.652 15.154 A 5.655 5.655 0 0 1 26.953 15.195 Q 25.674 15.195 24.605 14.507 Q 23.535 13.818 22.93 12.617 A 5.708 5.708 0 0 1 22.339 10.402 A 6.806 6.806 0 0 1 22.324 9.951 Z M 55.166 9.951 L 55.166 9.512 A 6.369 6.369 0 0 1 55.441 7.618 A 5.772 5.772 0 0 1 55.752 6.826 A 4.977 4.977 0 0 1 56.575 5.596 A 4.354 4.354 0 0 1 57.363 4.922 Q 58.389 4.238 59.6 4.238 A 4.04 4.04 0 0 1 61.069 4.497 A 3.657 3.657 0 0 1 62.49 5.498 A 4.318 4.318 0 0 1 63.487 7.52 A 6.227 6.227 0 0 1 63.613 8.809 L 63.613 9.365 L 55.693 9.365 L 55.693 9.941 A 5.323 5.323 0 0 0 56.235 12.329 Q 56.777 13.428 57.73 14.053 Q 58.682 14.678 59.795 14.678 Q 60.859 14.678 61.606 14.321 Q 62.354 13.965 62.93 13.223 L 63.301 13.486 A 3.83 3.83 0 0 1 60.493 15.154 A 5.655 5.655 0 0 1 59.795 15.195 Q 58.516 15.195 57.446 14.507 Q 56.377 13.818 55.771 12.617 A 5.708 5.708 0 0 1 55.181 10.402 A 6.806 6.806 0 0 1 55.166 9.951 Z M 82.52 9.951 L 82.52 9.512 A 6.369 6.369 0 0 1 82.795 7.618 A 5.772 5.772 0 0 1 83.105 6.826 A 4.977 4.977 0 0 1 83.928 5.596 A 4.354 4.354 0 0 1 84.717 4.922 Q 85.742 4.238 86.953 4.238 A 4.04 4.04 0 0 1 88.423 4.497 A 3.657 3.657 0 0 1 89.844 5.498 A 4.318 4.318 0 0 1 90.84 7.52 A 6.227 6.227 0 0 1 90.967 8.809 L 90.967 9.365 L 83.047 9.365 L 83.047 9.941 A 5.323 5.323 0 0 0 83.589 12.329 Q 84.131 13.428 85.083 14.053 Q 86.035 14.678 87.148 14.678 Q 88.213 14.678 88.96 14.321 Q 89.707 13.965 90.283 13.223 L 90.654 13.486 A 3.83 3.83 0 0 1 87.847 15.154 A 5.655 5.655 0 0 1 87.148 15.195 Q 85.869 15.195 84.8 14.507 Q 83.73 13.818 83.125 12.617 A 5.708 5.708 0 0 1 82.534 10.402 A 6.806 6.806 0 0 1 82.52 9.951 Z M 99.102 9.951 L 99.102 9.512 A 6.369 6.369 0 0 1 99.377 7.618 A 5.772 5.772 0 0 1 99.688 6.826 A 4.977 4.977 0 0 1 100.51 5.596 A 4.354 4.354 0 0 1 101.299 4.922 Q 102.324 4.238 103.535 4.238 A 4.04 4.04 0 0 1 105.005 4.497 A 3.657 3.657 0 0 1 106.426 5.498 A 4.318 4.318 0 0 1 107.422 7.52 A 6.227 6.227 0 0 1 107.549 8.809 L 107.549 9.365 L 99.629 9.365 L 99.629 9.941 A 5.323 5.323 0 0 0 100.171 12.329 Q 100.713 13.428 101.665 14.053 Q 102.617 14.678 103.73 14.678 Q 104.795 14.678 105.542 14.321 Q 106.289 13.965 106.865 13.223 L 107.236 13.486 A 3.83 3.83 0 0 1 104.429 15.154 A 5.655 5.655 0 0 1 103.73 15.195 Q 102.451 15.195 101.382 14.507 Q 100.313 13.818 99.707 12.617 A 5.708 5.708 0 0 1 99.116 10.402 A 6.806 6.806 0 0 1 99.102 9.951 Z M 137.998 9.951 L 137.998 9.512 A 6.369 6.369 0 0 1 138.273 7.618 A 5.772 5.772 0 0 1 138.584 6.826 A 4.977 4.977 0 0 1 139.407 5.596 A 4.354 4.354 0 0 1 140.195 4.922 Q 141.221 4.238 142.432 4.238 A 4.04 4.04 0 0 1 143.901 4.497 A 3.657 3.657 0 0 1 145.322 5.498 A 4.318 4.318 0 0 1 146.319 7.52 A 6.227 6.227 0 0 1 146.445 8.809 L 146.445 9.365 L 138.525 9.365 L 138.525 9.941 A 5.323 5.323 0 0 0 139.067 12.329 Q 139.609 13.428 140.562 14.053 Q 141.514 14.678 142.627 14.678 Q 143.691 14.678 144.438 14.321 Q 145.186 13.965 145.762 13.223 L 146.133 13.486 A 3.83 3.83 0 0 1 143.325 15.154 A 5.655 5.655 0 0 1 142.627 15.195 Q 141.348 15.195 140.278 14.507 Q 139.209 13.818 138.604 12.617 A 5.708 5.708 0 0 1 138.013 10.402 A 6.806 6.806 0 0 1 137.998 9.951 Z M 130 15 L 126.016 15 L 126.016 0.781 L 129.951 0.781 A 5.999 5.999 0 0 1 132.095 1.159 A 5.627 5.627 0 0 1 132.939 1.563 A 5.515 5.515 0 0 1 135.039 3.755 A 6.552 6.552 0 0 1 135.796 6.376 A 7.854 7.854 0 0 1 135.82 6.914 L 135.82 8.76 A 7.271 7.271 0 0 1 135.557 10.746 A 6.317 6.317 0 0 1 135.073 11.963 A 5.526 5.526 0 0 1 132.988 14.189 Q 131.65 14.99 130 15 Z M 77.666 1.582 L 78.203 1.582 L 78.203 4.434 L 80.605 4.434 L 80.605 4.971 L 78.203 4.971 L 78.203 12.471 A 5.496 5.496 0 0 0 78.232 13.056 Q 78.306 13.745 78.569 14.131 A 1.16 1.16 0 0 0 79.22 14.592 Q 79.473 14.668 79.795 14.668 A 5.311 5.311 0 0 0 80.143 14.656 Q 80.333 14.643 80.551 14.618 A 11.297 11.297 0 0 0 80.84 14.58 L 80.928 15.078 A 1.357 1.357 0 0 1 80.724 15.132 Q 80.505 15.175 80.174 15.189 A 8.351 8.351 0 0 1 79.824 15.195 A 3.271 3.271 0 0 1 79.228 15.145 Q 78.896 15.083 78.641 14.946 A 1.456 1.456 0 0 1 78.174 14.556 A 1.976 1.976 0 0 1 77.879 14.001 Q 77.672 13.421 77.666 12.539 L 77.666 4.971 L 75.713 4.971 L 75.713 4.434 L 77.666 4.434 L 77.666 1.582 Z M 130.029 1.309 L 126.543 1.309 L 126.543 14.473 L 129.951 14.473 A 5.228 5.228 0 0 0 132.671 13.745 A 5.086 5.086 0 0 0 134.59 11.714 Q 135.283 10.41 135.293 8.818 L 135.293 6.992 A 6.454 6.454 0 0 0 135.014 5.073 A 5.793 5.793 0 0 0 134.614 4.102 A 5.082 5.082 0 0 0 132.72 2.065 Q 131.504 1.328 130.029 1.309 Z M 37.949 4.346 L 37.891 4.814 L 37.207 4.756 Q 35.859 4.756 34.951 5.63 A 3.739 3.739 0 0 0 34.119 6.854 Q 33.904 7.349 33.784 7.951 A 6.759 6.759 0 0 0 33.76 8.076 L 33.76 15 L 33.232 15 L 33.232 4.434 L 33.76 4.434 L 33.76 6.631 A 4.205 4.205 0 0 1 34.369 5.548 A 3.645 3.645 0 0 1 35.049 4.883 A 3.148 3.148 0 0 1 36.33 4.322 A 4.403 4.403 0 0 1 37.207 4.238 Q 37.666 4.238 37.949 4.346 Z M 98.145 4.346 L 98.086 4.814 L 97.402 4.756 Q 96.055 4.756 95.146 5.63 A 3.739 3.739 0 0 0 94.314 6.854 Q 94.099 7.349 93.979 7.951 A 6.759 6.759 0 0 0 93.955 8.076 L 93.955 15 L 93.428 15 L 93.428 4.434 L 93.955 4.434 L 93.955 6.631 A 4.205 4.205 0 0 1 94.564 5.548 A 3.645 3.645 0 0 1 95.244 4.883 A 3.148 3.148 0 0 1 96.526 4.322 A 4.403 4.403 0 0 1 97.402 4.238 Q 97.861 4.238 98.145 4.346 Z M 117.09 12.383 L 117.09 7.432 A 4.729 4.729 0 0 0 116.427 6.128 Q 115.526 4.915 113.905 4.782 A 5.014 5.014 0 0 0 113.496 4.766 A 3.278 3.278 0 0 0 112.318 4.969 Q 111.54 5.266 111.006 5.997 A 3.663 3.663 0 0 0 110.972 6.045 A 4.232 4.232 0 0 0 110.408 7.215 Q 110.229 7.781 110.144 8.473 A 11.075 11.075 0 0 0 110.068 9.814 Q 110.068 12.061 110.957 13.364 Q 111.788 14.583 113.266 14.662 A 3.905 3.905 0 0 0 113.477 14.668 A 4.928 4.928 0 0 0 114.549 14.557 A 3.681 3.681 0 0 0 115.713 14.087 A 3.356 3.356 0 0 0 116.936 12.725 A 4.263 4.263 0 0 0 117.09 12.383 Z M 170.039 12.305 L 170.039 7.51 A 4.8 4.8 0 0 0 169.419 6.199 Q 168.424 4.766 166.455 4.766 A 3.321 3.321 0 0 0 165.292 4.961 Q 164.471 5.265 163.921 6.045 A 4.232 4.232 0 0 0 163.357 7.215 Q 163.178 7.781 163.093 8.473 A 11.075 11.075 0 0 0 163.018 9.814 Q 163.018 12.08 163.916 13.374 Q 164.814 14.668 166.436 14.668 A 4.807 4.807 0 0 0 167.53 14.549 A 3.607 3.607 0 0 0 168.711 14.048 A 3.323 3.323 0 0 0 170.014 12.374 A 4.1 4.1 0 0 0 170.039 12.305 Z M 159.512 4.434 L 159.512 15 L 158.984 15 L 158.984 4.434 L 159.512 4.434 Z M 22.881 8.838 L 30.244 8.838 L 30.244 8.711 Q 30.244 7.637 29.79 6.714 Q 29.336 5.791 28.54 5.278 A 3.221 3.221 0 0 0 26.758 4.766 A 3.433 3.433 0 0 0 24.242 5.808 A 4.288 4.288 0 0 0 24.141 5.913 A 4.653 4.653 0 0 0 23.011 8.065 A 6.108 6.108 0 0 0 22.881 8.838 Z M 55.723 8.838 L 63.086 8.838 L 63.086 8.711 Q 63.086 7.637 62.632 6.714 Q 62.178 5.791 61.382 5.278 A 3.221 3.221 0 0 0 59.6 4.766 A 3.433 3.433 0 0 0 57.084 5.808 A 4.288 4.288 0 0 0 56.982 5.913 A 4.653 4.653 0 0 0 55.852 8.065 A 6.108 6.108 0 0 0 55.723 8.838 Z M 83.076 8.838 L 90.439 8.838 L 90.439 8.711 Q 90.439 7.637 89.985 6.714 Q 89.531 5.791 88.735 5.278 A 3.221 3.221 0 0 0 86.953 4.766 A 3.433 3.433 0 0 0 84.438 5.808 A 4.288 4.288 0 0 0 84.336 5.913 A 4.653 4.653 0 0 0 83.206 8.065 A 6.108 6.108 0 0 0 83.076 8.838 Z M 99.658 8.838 L 107.021 8.838 L 107.021 8.711 Q 107.021 7.637 106.567 6.714 Q 106.113 5.791 105.317 5.278 A 3.221 3.221 0 0 0 103.535 4.766 A 3.433 3.433 0 0 0 101.02 5.808 A 4.288 4.288 0 0 0 100.918 5.913 A 4.653 4.653 0 0 0 99.788 8.065 A 6.108 6.108 0 0 0 99.658 8.838 Z M 138.555 8.838 L 145.918 8.838 L 145.918 8.711 Q 145.918 7.637 145.464 6.714 Q 145.01 5.791 144.214 5.278 A 3.221 3.221 0 0 0 142.432 4.766 A 3.433 3.433 0 0 0 139.916 5.808 A 4.288 4.288 0 0 0 139.814 5.913 A 4.653 4.653 0 0 0 138.684 8.065 A 6.108 6.108 0 0 0 138.555 8.838 Z M 43.428 8.232 L 43.428 8.76 L 38.838 8.76 L 38.838 8.232 L 43.428 8.232 Z M 158.867 0.747 A 0.535 0.535 0 0 0 158.711 1.133 A 0.644 0.644 0 0 0 158.711 1.14 A 0.517 0.517 0 0 0 158.867 1.514 A 0.537 0.537 0 0 0 159.006 1.615 A 0.531 0.531 0 0 0 159.248 1.67 A 0.535 0.535 0 0 0 159.634 1.514 A 0.618 0.618 0 0 0 159.644 1.504 A 0.509 0.509 0 0 0 159.795 1.133 Q 159.795 0.908 159.634 0.747 A 0.65 0.65 0 0 0 159.629 0.742 A 0.525 0.525 0 0 0 159.248 0.586 A 0.618 0.618 0 0 0 159.234 0.586 A 0.509 0.509 0 0 0 158.867 0.747 Z" vector-effect="non-scaling-stroke"/></g></svg>